<svg viewBox="0 -16 511.99988 511" xmlns="http://www.w3.org/2000/svg"><path d="m143.527344 311.484375v69.4375c0 4.148437 3.363281 7.511719 7.511718 7.511719 4.148438 0 7.511719-3.363282 7.511719-7.511719v-69.4375c0-4.148437-3.363281-7.511719-7.511719-7.511719-4.148437 0-7.511718 3.363282-7.511718 7.511719zm0 0"/><path d="m199.9375 380.921875v-69.4375c0-4.148437-3.363281-7.511719-7.507812-7.511719-4.148438 0-7.511719 3.363282-7.511719 7.511719v69.4375c0 4.148437 3.363281 7.511719 7.511719 7.511719 4.144531 0 7.507812-3.363282 7.507812-7.511719zm0 0"/><path d="m242.816406 380.921875v-69.4375c0-4.148437-3.363281-7.511719-7.511718-7.511719-4.148438 0-7.511719 3.363282-7.511719 7.511719v69.4375c0 4.148437 3.363281 7.511719 7.511719 7.511719 4.148437 0 7.511718-3.363282 7.511718-7.511719zm0 0"/><path d="m284.203125 380.921875v-69.4375c0-4.148437-3.363281-7.511719-7.507813-7.511719-4.148437 0-7.511718 3.363282-7.511718 7.511719v69.4375c0 4.148437 3.363281 7.511719 7.511718 7.511719 4.144532 0 7.507813-3.363282 7.507813-7.511719zm0 0"/><path d="m319.570312 388.433594c4.148438 0 7.511719-3.363282 7.511719-7.511719v-69.4375c0-4.148437-3.363281-7.511719-7.511719-7.511719-4.148437 0-7.511718 3.363282-7.511718 7.511719v69.4375c0 4.148437 3.363281 7.511719 7.511718 7.511719zm0 0"/><path d="m368.472656 380.921875v-69.4375c0-4.148437-3.363281-7.511719-7.511718-7.511719-4.148438 0-7.511719 3.363282-7.511719 7.511719v69.4375c0 4.148437 3.363281 7.511719 7.511719 7.511719 4.148437 0 7.511718-3.363282 7.511718-7.511719zm0 0"/><path d="m511.914062 186.421875c-.960937-22.839844-10.332031-44.53125-26.386718-61.082031-16.058594-16.554688-37.453125-26.578125-60.25-28.226563-11.113282-.804687-22.039063.320313-32.582032 3.34375-8.386718-27.117187-25.007812-51.488281-47.398437-69.265625-25.277344-20.078125-55.742187-30.691406-88.089844-30.691406-25.503906 0-50.511719 6.851562-72.324219 19.816406-3.5625 2.117188-4.738281 6.726563-2.617187 10.292969 2.117187 3.566406 6.726563 4.738281 10.296875 2.621094 19.488281-11.585938 41.84375-17.707031 64.644531-17.707031 58.503907 0 109.113281 39.621093 123.074219 96.355468.515625 2.09375 1.90625 3.863282 3.816406 4.863282s4.15625 1.128906 6.167969.355468c10.84375-4.164062 22.253906-5.84375 33.929687-5 19.109376 1.378906 37.0625 9.796875 50.546876 23.703125 13.484374 13.902344 21.355468 32.101563 22.160156 51.25.914062 21.660157-6.820313 42.175781-21.777344 57.773438-14.964844 15.609375-35.105469 24.203125-56.722656 24.203125-12.429688 0-22.546875 10.113281-22.546875 22.546875v117.894531h-52.242188c-4.148437 0-7.511719 3.363281-7.511719 7.511719 0 4.144531 3.363282 7.507812 7.511719 7.507812h52.242188v28.445313c0 6.785156-5.515625 12.300781-12.296875 12.300781h-255.121094c-6.78125 0-12.300781-5.515625-12.300781-12.300781v-28.445313h192.527343c4.148438 0 7.507813-3.363281 7.507813-7.507812 0-4.148438-3.359375-7.511719-7.507813-7.511719h-192.523437v-120.023438c0-10.863281-7.675781-20.167968-18.242187-22.128906-23.246094-4.308594-44.40625-16.769531-59.578126-35.089844-15.375-18.554687-23.644531-42.082031-23.285156-66.246093.8125-55.035157 46.273438-99.882813 101.335938-99.964844h.160156c10.179688 0 20.234375 1.503906 29.882812 4.46875 3.066407.945313 6.390626-.164063 8.277344-2.753906 3.578125-4.910157 7.546875-9.609375 11.789063-13.960938 2.898437-2.96875 2.839843-7.722656-.128907-10.621093-2.96875-2.898438-7.726562-2.839844-10.621093.128906-3.523438 3.613281-6.875 7.433594-10 11.40625-9.503907-2.453125-19.300781-3.691406-29.199219-3.691406-.0625 0-.125 0-.183594 0-63.214844.097656-115.402344 51.582031-116.3359372 114.769531-.4101568 27.730469 9.0859372 54.742187 26.7382812 76.046875 17.414062 21.023437 41.710938 35.328125 68.40625 40.277344 3.453125.640624 5.960938 3.734374 5.960938 7.359374v163.488282c0 15.066406 12.253906 27.324218 27.320312 27.324218h255.121094c15.066406 0 27.320312-12.257812 27.320312-27.324218v-161.359375c0-4.148438 3.378906-7.523438 7.527344-7.523438 25.746094 0 49.742188-10.238281 67.566406-28.828125 17.8125-18.582031 27.027344-43.015625 25.941406-68.800781zm0 0"/></svg>