<?xml version="1.0" encoding="iso-8859-1"?>
<!-- Generator: Adobe Illustrator 19.0.0, SVG Export Plug-In . SVG Version: 6.00 Build 0)  -->
<svg version="1.1" id="Capa_1" xmlns="http://www.w3.org/2000/svg" xmlns:xlink="http://www.w3.org/1999/xlink" x="0px" y="0px"
	 viewBox="0 0 511.996 511.996" style="enable-background:new 0 0 511.996 511.996;" xml:space="preserve">
<g>
	<g>
		<path d="M288.605,113.131c-0.39-2.806-0.42-5.656-0.087-8.472c0.492-4.158-2.48-7.926-6.637-8.417
			c-4.158-0.491-7.926,2.48-8.417,6.637c-0.485,4.101-0.443,8.254,0.126,12.343c0.577,4.147,4.406,7.039,8.552,6.462
			c1.699-0.235,3.186-1.017,4.311-2.143C288.076,117.917,288.945,115.58,288.605,113.131z"/>
	</g>
</g>
<g>
	<g>
		<path d="M172.067,176.607c-2.592-3.288-7.358-3.851-10.645-1.259c-3.243,2.557-6.149,5.523-8.638,8.818
			c-2.526,3.338-1.864,8.092,1.477,10.615c1.368,1.033,2.972,1.533,4.564,1.533c2.295,0,4.563-1.039,6.054-3.011
			c1.708-2.261,3.703-4.297,5.929-6.052C174.095,184.66,174.659,179.893,172.067,176.607z"/>
	</g>
</g>
<g>
	<g>
		<path d="M158.254,213.058c0-1.421,0.092-2.85,0.274-4.251c0.538-4.151-2.392-7.953-6.544-8.49
			c-4.149-0.542-7.953,2.392-8.49,6.544c-0.265,2.042-0.399,4.127-0.399,6.197c0,2.053,0.131,4.121,0.392,6.148
			c0.491,3.824,3.752,6.615,7.509,6.615c0.321,0,0.648-0.021,0.975-0.063c4.152-0.534,7.085-4.333,6.552-8.484
			C158.344,215.885,158.254,214.467,158.254,213.058z"/>
	</g>
</g>
<g>
	<g>
		<path d="M229.445,184.204c-2.486-3.298-5.39-6.268-8.63-8.827c-3.284-2.595-8.052-2.036-10.646,1.249
			c-2.595,3.286-2.036,8.053,1.249,10.647c2.223,1.756,4.215,3.794,5.921,6.058c1.49,1.977,3.76,3.017,6.059,3.017
			c1.589,0,3.19-0.498,4.557-1.528C231.298,192.299,231.965,187.547,229.445,184.204z"/>
	</g>
</g>
<g>
	<g>
		<path d="M491.564,184.093c7.879-4.458,14.072-11.218,17.413-18.971c5.333-12.082,3.543-24.903-4.912-35.173
			c-9.717-11.805-25.812-17.214-40.951-13.787c-7.605,1.664-17.985,2.156-24.314-5.035c-9.402-10.409-23.994-15.607-39.022-13.905
			c-15.084,1.708-28.217,10.125-35.117,22.486c-2.827,5.013-7.9,8.045-13.335,8.344l-69.595-69.595
			c-2.948-2.947-7.027-4.514-11.187-4.279c-4.135,0.226-7.989,2.202-10.574,5.423c-6.65,8.286-11.338,17.542-14.134,27.194
			c-12.413-3.22-25.247-1.555-35.645,4.425l-17.776-17.776c-8.865-8.865-23.292-8.865-32.158,0c-5.02,5.02-7.19,11.822-6.527,18.388
			c-18.43,0.886-35.339,12.289-42.067,29.671c-0.785,2.039-1.953,3.836-3.466,5.341c-2.969,2.95-2.984,7.749-0.033,10.719
			c1.482,1.491,3.429,2.237,5.376,2.237c1.932,0,3.865-0.734,5.343-2.203c3.038-3.019,5.368-6.6,6.923-10.633
			c6.205-16.035,23.188-21.917,36.361-19.453l19.53,19.53c4.433,4.433,10.256,6.65,16.079,6.65s11.646-2.216,16.08-6.65
			c6.344-6.345,8.122-15.528,5.388-23.492c6.838-3.416,15.137-4.189,23.229-1.979c0.191,0.053,0.383,0.089,0.574,0.126
			c-1.959,22.355,5.716,45.274,22.687,62.245c5.658,5.659,12.047,10.341,19.036,14.001c-2.324,4.784-6.844,7.876-11.332,8.7
			c-2.68,0.528-5.299,1.325-7.833,2.349c-10.181-31.443-39.714-54.257-74.504-54.257c-22.036,0-41.963,9.161-56.208,23.86
			c-5.896-1.536-11.953-1.488-17.577,0.187c-4.049,1.183-8.338-0.591-10.411-4.289c-5.179-9.328-14.992-15.656-26.25-16.929
			c-11.201-1.266-22.094,2.653-29.196,10.558c-3.621,4.133-9.966,3.774-14.598,2.754c-11.381-2.585-23.464,1.472-30.786,10.341
			c-6.414,7.77-7.84,17.88-3.841,26.982c2.539,5.925,7.198,11.042,13.097,14.397c9.355,5.359,8.839,9.735,8.667,11.193
			c-1.131,9.803,1.648,19.866,7.501,27.752c-8.361,1.955-15.816,6.771-21.183,13.862c-7.226,9.546-9.504,21.635-6.251,33.168
			c13.361,47.359,49.455,88.654,101.845,116.661c1.11,13.96,7.276,26.903,17.53,36.674c10.782,10.277,24.889,15.936,39.722,15.936
			h179.204c14.833,0,28.94-5.659,39.723-15.936c10.251-9.77,16.416-22.708,17.529-36.661
			c52.315-27.964,88.387-69.197,101.794-116.492c3.291-11.609,1.019-23.77-6.232-33.361c-6.744-8.923-16.801-14.234-27.814-14.777
			c7.922-10.615,11.684-24.166,10.152-37.383C477.205,200.651,476.275,192.806,491.564,184.093z M203.135,116.322
			c-2.955,2.956-7.764,2.956-10.72,0l-21.438-21.438c-2.955-2.955-2.955-7.765,0-10.719c1.478-1.478,3.419-2.216,5.36-2.216
			c1.94,0,3.882,0.739,5.359,2.216l21.438,21.438C206.09,108.557,206.09,113.367,203.135,116.322z M276.452,153.221
			c-22.683-22.68-24.805-58.533-5.043-83.647l51.475,51.475c-3.797,0.533-7.79-0.643-10.703-3.556c-2.959-2.961-7.758-2.96-10.719,0
			c-2.96,2.96-2.96,7.76,0.001,10.72c2.096,2.095,4.448,3.781,6.953,5.066c-0.962,0.612-1.914,1.249-2.841,1.933
			c-0.83,0.612-1.63,1.25-2.411,1.902c-0.493-0.961-1.191-1.834-2.103-2.539c-1.108-0.855-2.174-1.794-3.171-2.79
			c-1.005-1.005-1.951-2.08-2.812-3.199c-2.555-3.316-7.315-3.932-10.631-1.377c-3.317,2.551-3.932,7.315-1.376,10.631
			c1.257,1.632,2.637,3.201,4.1,4.664c1.452,1.452,3.009,2.822,4.625,4.07c0.6,0.463,1.249,0.819,1.922,1.077
			c-2.933,4.446-5.036,9.301-6.218,14.384C283.528,159.533,279.828,156.598,276.452,153.221z M191.099,149.894
			c29.382,0,54.128,20.171,61.154,47.388c-4.434,3.91-8.214,8.672-11.032,14.082c-0.84,1.612-1.582,3.253-2.229,4.916
			c0.072-1.073,0.111-2.15,0.111-3.222c0-2.054-0.132-4.122-0.392-6.148c-0.534-4.152-4.336-7.083-8.484-6.552
			c-4.152,0.534-7.085,4.333-6.552,8.484c0.179,1.388,0.269,2.805,0.269,4.215c0,1.421-0.092,2.85-0.274,4.251
			c-0.538,4.151,2.392,7.953,6.544,8.49c0.33,0.042,0.658,0.064,0.983,0.064c2.225,0,4.273-0.985,5.678-2.579
			c-1.272,5.722-1.455,11.571-0.549,17.277h-6.08c1.466-3.167,0.589-7.036-2.309-9.226c-3.341-2.523-8.093-1.862-10.617,1.478
			c-1.708,2.261-3.703,4.297-5.929,6.052c-0.627,0.494-1.153,1.068-1.58,1.696h-14.731c13.444-1.938,23.81-13.53,23.81-27.502
			c0-12.696-8.562-23.424-20.212-26.733v-13.692c0-4.186-3.394-7.58-7.58-7.58s-7.58,3.394-7.58,7.58v23.244h0.635
			c1.17,2.676,3.837,4.548,6.945,4.548c6.966,0,12.633,5.667,12.633,12.633s-5.667,12.633-12.633,12.633
			s-12.633-5.667-12.633-12.633c0-4.186-3.394-7.58-7.58-7.58c-4.186,0-7.58,3.394-7.58,7.58c0,13.972,10.366,25.564,23.81,27.502
			h-14.748c-0.427-0.636-0.957-1.218-1.591-1.718c-2.223-1.756-4.215-3.794-5.921-6.058c-2.519-3.342-7.272-4.009-10.615-1.49
			c-2.913,2.196-3.792,6.088-2.302,9.264h-17.675c-4.047-8.317-6.329-17.645-6.329-27.502
			C127.935,178.229,156.27,149.894,191.099,149.894z M22.841,189.428c-3.018-1.716-5.451-4.342-6.704-7.265
			c-2.211-5.032-0.337-8.921,1.625-11.297c3.041-3.683,9.085-6.722,15.788-5.199c12.266,2.699,22.677,0.015,29.247-7.488
			c3.77-4.195,9.81-6.27,16.153-5.554c6.398,0.724,11.893,4.172,14.715,9.254c5.565,9.92,17.041,14.629,27.939,11.44
			c0.762-0.227,1.542-0.393,2.333-0.507c-2.624,4.363-4.832,9-6.576,13.86c-0.752-1.075-1.588-2.111-2.547-3.07
			c-8.866-8.866-23.293-8.866-32.158,0L61.217,205.04c-8.866,8.866-8.866,23.292,0,32.158c1.328,1.327,2.79,2.432,4.331,3.361
			h-18.01c0.182-2.095-0.496-4.254-2.063-5.894c-4.822-5.046-7.222-12.202-6.423-19.122
			C39.899,208.352,37.78,197.985,22.841,189.428z M93.375,237.198l19.536-19.536c0.47,8.015,2.164,15.704,4.879,22.898H89.045
			C90.585,239.63,92.048,238.525,93.375,237.198z M82.656,226.479c-2.956,2.956-7.763,2.955-10.72,0
			c-1.419-1.42-2.201-3.323-2.201-5.359c0-2.037,0.781-3.94,2.201-5.36l21.438-21.438c1.42-1.42,3.323-2.201,5.359-2.201
			s3.939,0.782,5.36,2.202c1.42,1.42,2.201,3.323,2.201,5.359s-0.781,3.939-2.201,5.359L82.656,226.479z M483.082,264.531
			c4.36,5.769,5.724,13.089,3.74,20.086c-12.315,43.448-45.966,81.522-94.903,107.533H182.003c-4.186,0-7.58,3.394-7.58,7.58
			c0,4.186,3.394,7.58,7.58,7.58h202.084c-3.261,19.918-20.979,35.371-41.725,35.371H163.157c-20.748,0-38.466-15.454-41.726-35.371
			h30.253c4.186,0,7.58-3.394,7.58-7.58c0-4.186-3.394-7.58-7.58-7.58h-38.063C64.599,366.1,30.926,327.967,18.65,284.453
			c-1.953-6.923-0.587-14.177,3.747-19.903c4.249-5.613,10.675-8.832,17.633-8.832h203.734c0.88,0.348,1.819,0.547,2.778,0.547
			c0.933,0,1.877-0.183,2.791-0.547H413.75c0.003,0,0.007,0,0.01,0c0.004,0,0.008,0,0.011,0h51.716
			C472.435,255.719,478.848,258.93,483.082,264.531z M315.954,240.559c5.643-19.494,23.516-33.35,44.53-33.35
			c21.154,0,38.918,13.86,44.261,33.35H315.954z M462.455,204.996c1.258,10.852-2.517,22.046-10.1,29.943
			c-1.504,1.566-2.195,3.611-2.097,5.621h-29.945c-5.667-28.092-30.256-48.509-59.829-48.509c-29.383,0-54.134,20.427-60.144,48.509
			H251.76c-1.76-7.281-0.774-15.128,2.906-22.194c4.57-8.775,12.682-15.073,21.604-16.831c14.297-2.627,24.919-15.216,25.258-30.027
			c0.098-9.263,4.856-18.048,13.053-24.103c8.133-6.008,18.228-8.042,27.044-5.432c14.104,4.106,29.007-1.989,36.258-14.847
			c4.54-8.132,13.362-13.681,23.602-14.84c10.186-1.155,19.933,2.211,26.002,8.93c8.693,9.875,22.497,13.34,38.923,9.743
			c9.504-2.148,19.938,1.315,25.955,8.625c2.752,3.343,6.768,10.31,2.721,19.478c-2.037,4.727-6.04,9.042-11.005,11.85
			C464.209,182.235,461.354,195.706,462.455,204.996z"/>
	</g>
</g>
<g>
	<g>
		<path d="M424.55,148.247h-30.318c-12.538,0-22.739,10.2-22.739,22.739c0,12.539,10.201,22.739,22.739,22.739h30.318
			c12.538,0,22.739-10.2,22.739-22.739C447.289,158.447,437.088,148.247,424.55,148.247z M424.55,178.565h-30.318
			c-4.18,0-7.58-3.4-7.58-7.58c0-4.18,3.4-7.58,7.58-7.58h30.318c4.18,0,7.58,3.4,7.58,7.58
			C432.13,175.166,428.729,178.565,424.55,178.565z"/>
	</g>
</g>
<g>
</g>
<g>
</g>
<g>
</g>
<g>
</g>
<g>
</g>
<g>
</g>
<g>
</g>
<g>
</g>
<g>
</g>
<g>
</g>
<g>
</g>
<g>
</g>
<g>
</g>
<g>
</g>
<g>
</g>
</svg>
