<svg viewBox="0 0 512 512" xmlns="http://www.w3.org/2000/svg"><path d="m437.019531 74.980469c-44.800781-44.800781-103.285156-70.933594-166.023437-74.535157-.34375-.019531-.683594-.042968-1.027344-.0625-1.054688-.054687-2.109375-.101562-3.164062-.144531-.964844-.039062-1.925782-.074219-2.886719-.105469-.792969-.023437-1.589844-.0468745-2.382813-.0664058-1.851562-.0390624-3.699218-.0664062-5.53125-.0664062-.003906 0-.007812 0-.015625 0-.046875 0-.097656.00390625-.144531.00390625-37.621094.01953125-73.863281 8.01562475-107.71875 23.76953175-3.757812 1.746093-5.386719 6.210937-3.636719 9.96875 1.746094 3.757812 6.210938 5.390624 9.96875 3.640624 20.824219-9.691406 42.617188-16.242187 65.101563-19.636718.421875 4.886718 2.675781 9.527344 6.4375 12.863281l7.785156 6.90625c3.652344 3.238281 8.25 4.847656 12.851562 4.847656 4.867188 0 9.730469-1.804687 13.453126-5.390625l15.789062-15.214844c1.6875-1.628906 3.03125-3.523437 4.023438-5.585937 55.34375 5.414063 106.667968 29.585937 146.507812 69.421875 7.390625 7.390625 14.234375 15.1875 20.53125 23.324219-6.207031 3.984375-10.722656 11.617187-12.964844 22.332031-1.253906 5.996094.808594 12.242188 5.390625 16.304688l6.289063 5.582031c3.222656 2.855469 7.285156 4.277343 11.339844 4.277343 4.296874 0 8.589843-1.59375 11.871093-4.757812l3.386719-3.261719c16.179688 32.746094 24.738281 69.015625 24.738281 106.605469 0 64.371094-25.066406 124.890625-70.582031 170.40625s-106.035156 70.582031-170.40625 70.582031-124.890625-25.066406-170.40625-70.582031-70.582031-106.035156-70.582031-170.40625c0-22.53125 3.109375-44.582031 9.046875-65.644531 1.140625.257812 2.304687.421875 3.496094.46875.363281.015625.726562.019531 1.09375.019531 7.945312 0 16.242187-3.25 24.679687-9.675781 3.9375-3 6.097656-7.089844 6.242187-11.824219.242188-7.71875-5.066406-16.597656-16.160156-27.039062 18.875-35.292969 46.589844-65.859376 81.414063-88.5 3.476562-2.257813 4.460937-6.910157 2.203125-10.382813-2.257813-3.476563-6.90625-4.460937-10.382813-2.203125-73.039062 47.484375-116.644531 127.773438-116.644531 214.78125 0 68.378906 26.628906 132.667969 74.980469 181.019531 48.351562 48.351563 112.640625 74.980469 181.019531 74.980469s132.667969-26.628906 181.019531-74.980469c48.351563-48.351562 74.980469-112.640625 74.980469-181.019531s-26.628906-132.667969-74.980469-181.019531zm-187.347656-48.816407c-1.632813 1.570313-4.238281 1.625-5.929687.121094l-7.785157-6.90625c-.976562-.863281-1.503906-2.117187-1.46875-3.398437 3.429688-.308594 6.863281-.539063 10.285157-.699219.617187-.027344 1.242187-.050781 1.863281-.074219 1.175781-.046875 2.351562-.09375 3.523437-.121093 1.945313-.046876 3.890625-.078126 5.839844-.078126 1.730469 0 3.457031.027344 5.179688.0625zm208.78125 115.6875c-.777344.75-2.027344.777344-2.839844.058594l-6.289062-5.582031c-.5625-.496094-.8125-1.261719-.660157-2 1.789063-8.550781 4.6875-11.867187 7.1875-13.019531 3.167969 4.695312 6.179688 9.503906 8.996094 14.378906zm-421.921875 14.738282c8.265625 8.613281 8.042969 12.300781 8.058594 12.300781 0 0-.078125.121094-.359375.335937-5.625 4.285157-10.953125 6.558594-15.464844 6.605469 2.316406-6.527343 4.910156-12.960937 7.765625-19.242187zm0 0"/><path d="m245.820312 189.847656c-2.210937.339844-4.390624.789063-6.523437 1.339844-1.070313.277344-2.128906.578125-3.175781.902344-27.226563 8.484375-47.042969 33.925781-47.042969 63.910156 0 36.898438 30.019531 66.921875 66.921875 66.921875s66.921875-30.023437 66.921875-66.921875c0-29.984375-19.816406-55.425781-47.042969-63.910156-1.046875-.324219-2.105468-.628906-3.175781-.902344-2.136719-.550781-4.3125-1-6.523437-1.339844-3.320313-.507812-6.71875-.773437-10.179688-.773437-3.460938.003906-6.859375.265625-10.179688.773437zm62.09375 66.152344c0 28.625-23.289062 51.914062-51.914062 51.914062s-51.914062-23.289062-51.914062-51.914062 23.289062-51.914062 51.914062-51.914062 51.914062 23.289062 51.914062 51.914062zm0 0"/><path d="m418.503906 345.707031 3.148438 2.792969c1.386718 1.230469 3.164062 1.890625 4.980468 1.890625.492188 0 .984376-.046875 1.472657-.144531.574219-.113282 1.066406-.179688 1.515625-.195313l.84375-.03125c6.195312-.230469 12.363281-1.269531 18.332031-3.089843 1.132813-.34375 2.167969-.953126 3.019531-1.773438l6.292969-6.066406c5.953125-5.734375 6.71875-14.957032 1.785156-21.449219-3.921875-5.15625-10.101562-8.765625-18.375-10.71875-5.816406-1.378906-11.316406-.566406-15.902343 2.351563-7.515626 4.777343-10.8125 13.996093-12.253907 20.886718-1.195312 5.71875.773438 11.675782 5.140625 15.546875zm9.550782-12.472656c1.167968-5.582031 3.265624-9.804687 5.613281-11.292969.527343-.335937 1.253906-.671875 2.421875-.671875.550781 0 1.199218.074219 1.976562.257813 4.730469 1.117187 8.144532 2.914062 9.878906 5.195312.320313.421875.207032 1.121094-.25 1.558594l-4.957031 4.777344c-4.199219 1.144531-8.511719 1.804687-12.882812 1.964844l-.746094.027343-.644531-.574219c-.347656-.308593-.503906-.78125-.410156-1.242187zm0 0"/><path d="m116.761719 134.242188c-1.125 5.371093.722656 10.96875 4.828125 14.605468l5.125 4.546875c2.882812 2.558594 6.523437 3.832031 10.15625 3.832031 3.851562 0 7.695312-1.425781 10.636718-4.261718l10.394532-10.015625c5.59375-5.390625 6.308594-14.054688 1.667968-20.164063-3.601562-4.734375-9.25-8.042968-16.792968-9.828125-5.390625-1.277343-10.496094-.515625-14.765625 2.199219-6.917969 4.398438-9.9375 12.808594-11.25 19.085938zm19.304687-6.421876c.351563-.222656 1.179688-.75 3.257813-.257812 5.066406 1.199219 7.308593 3.003906 8.285156 4.28125.007813.019531.007813.175781-.121094.296875l-10.390625 10.015625c-.121094.117188-.300781.117188-.421875.011719l-5.125-4.546875c-.085937-.074219-.121093-.1875-.097656-.304688.976563-4.667968 2.742187-8.304687 4.613281-9.496094zm0 0"/><path d="m287.582031 144.089844 6.25 5.546875c3.210938 2.84375 7.257813 4.257812 11.296875 4.257812 4.28125 0 8.558594-1.585937 11.828125-4.738281l12.675781-12.214844c6.21875-5.992187 7.023438-15.625 1.867188-22.40625-4.152344-5.464844-10.730469-9.292968-19.546875-11.378906-6.132813-1.453125-11.925781-.597656-16.746094 2.464844-7.953125 5.058594-11.457031 14.878906-12.996093 22.226562-1.246094 5.972656.808593 12.195313 5.371093 16.242188zm9.320313-13.167969c1.300781-6.207031 3.675781-10.929687 6.359375-12.632813.867187-.554687 2.355469-1.210937 5.238281-.527343 5.265625 1.246093 9.085938 3.269531 11.050781 5.855469.542969.710937.394531 1.816406-.332031 2.515624l-12.675781 12.214844c-.753907.730469-1.964844.753906-2.75.058594l-6.25-5.542969c-.542969-.484375-.789063-1.226562-.640625-1.941406zm0 0"/><path d="m391.175781 214.566406c-4.597656-1.085937-9.042969-.054687-12.535156 2.90625-10.242187 8.6875-9.390625 33.429688-8.886719 40.804688.132813 1.964844 1.035156 3.796875 2.507813 5.105468 3.332031 2.957032 7.535156 4.425782 11.734375 4.425782 4.449218 0 8.890625-1.648438 12.289062-4.921875l13.558594-13.066407c6.460938-6.226562 7.296875-16.230468 1.945312-23.269531-4.367187-5.75-11.304687-9.78125-20.613281-11.984375zm8.253907 24.445313-13.558594 13.066406c-.382813.367187-.851563.601563-1.34375.695313-.261719-11.875 1.675781-21.210938 3.503906-23.523438 5.59375 1.367188 9.667969 3.570312 11.808594 6.382812.734375.964844.554687 2.453126-.410156 3.378907zm0 0"/><path d="m75.039062 298.574219c7.058594 0 14.347657-2.929688 21.675782-8.707031 4.757812-3.753907 6.839844-9.226563 5.710937-15.007813-1.703125-8.730469-10.621093-17.0625-21.679687-20.269531-5.933594-1.71875-12.339844-.371094-17.140625 3.609375-4.90625 4.074219-7.472657 10.285156-6.863281 16.613281l.75 7.769531c.871093 8.988281 8.261718 15.863281 17.195312 15.988281.117188 0 .234375.003907.351562.003907zm-2.605468-17.433594-.75-7.769531c-.191406-1.980469.988281-3.191406 1.507812-3.617188.445313-.371094 1.269532-.894531 2.363282-.894531.316406 0 .65625.042969 1.011718.148437 6.835938 1.980469 11.046875 7.027344 11.148438 8.800782-.050782.058594-.144532.152344-.296875.273437-4.550781 3.589844-8.828125 5.484375-12.382813 5.480469-.046875 0-.09375 0-.140625 0-1.25-.015625-2.332031-1.082031-2.460937-2.421875zm0 0"/><path d="m161.585938 255.980469c0 43.824219 30.015624 80.765625 70.566406 91.359375-5.339844 2.488281-9.640625 5.589844-13.679688 8.519531-7.824218 5.675781-14.582031 10.578125-28.703125 10.578125-11.515625 0-17.800781-7.230469-27.105469-19.023438-9.808593-12.4375-22.011718-27.914062-46.183593-26.527343-22.996094 1.320312-29.210938 14.578125-34.207031 25.234375-3.199219 6.824218-5.960938 12.714844-12.78125 16.476562-3.628907 2-4.949219 6.566406-2.945313 10.195313 2 3.628906 6.566406 4.949219 10.195313 2.945312 11.089843-6.113281 15.542968-15.613281 19.121093-23.246093 4.621094-9.859376 7.414063-15.8125 21.476563-16.621094 16.363281-.949219 24.324218 9.152344 33.542968 20.839844 9.144532 11.59375 19.507813 24.734374 38.886719 24.734374 18.992188 0 28.832031-7.140624 37.515625-13.4375 7.828125-5.675781 14.585938-10.578124 28.707032-10.578124 10.042968 0 15.917968 2.53125 19.914062 4.730468 14.289062 7.882813 23.167969 23.199219 23.167969 39.972656v23.484376c0 14.386718 11.703125 26.089843 26.085937 26.089843 14.386719 0 26.089844-11.703125 26.089844-26.089843v-62.339844c0-6.140625 4.785156-11.308594 10.664062-11.515625 3.058594-.113281 5.921876.992187 8.105469 3.097656 2.183594 2.105469 3.386719 4.9375 3.386719 7.96875v25.714844c0 14.386719 11.703125 26.089843 26.085938 26.089843 14.386718 0 26.089843-11.703124 26.089843-26.089843 0-5.070313 3.964844-9.1875 9.027344-9.371094 4.144531-.152344 7.378906-3.632813 7.226563-7.773437-.152344-4.144532-3.613282-7.390626-7.773438-7.226563-13.171875.480469-23.492188 11.183594-23.492188 24.371094 0 6.109375-4.96875 11.078125-11.078124 11.078125-6.109376 0-11.078126-4.96875-11.078126-11.078125v-25.714844c0-7.140625-2.832031-13.808594-7.972656-18.769531-5.140625-4.960938-11.917968-7.554688-19.058594-7.296875-14.101562.5-25.144531 12.148437-25.144531 26.515625v62.339844c0 6.109374-4.96875 11.078124-11.078125 11.078124-6.105468 0-11.074218-4.96875-11.074218-11.078124v-23.484376c0-22.242187-11.851563-42.59375-30.933594-53.113281-1.09375-.605469-2.203125-1.160156-3.316406-1.675781 40.554687-10.589844 70.574218-47.535156 70.574218-91.363281 0-52.058594-42.351562-94.414063-94.410156-94.414063s-94.414062 42.355469-94.414062 94.414063zm173.816406 0c0 43.78125-35.621094 79.402343-79.402344 79.402343s-79.402344-35.621093-79.402344-79.402343c0-43.785157 35.621094-79.402344 79.402344-79.402344s79.402344 35.617187 79.402344 79.402344zm0 0"/><path d="m142.859375 214.621094c-7.253906-8.511719-17.632813-15.949219-18.070313-16.261719-1.605468-1.144531-3.59375-1.613281-5.535156-1.300781-9.0625 1.4375-15.589844 9.730468-14.863281 18.878906l1.488281 18.769531c.710938 8.941407 7.914063 15.9375 16.75 16.273438.320313.011719.636719.015625.957032.015625 5.835937 0 11.890624-2.007813 18.019531-5.976563 2.546875-1.648437 3.851562-4.664062 3.304687-7.648437-.574218-3.132813-.863281-6.292969-.863281-9.390625 0-2.472657.179687-4.972657.53125-7.425781.304687-2.128907-.320313-4.292969-1.71875-5.933594zm-19.664063 21.359375c-1.214843-.046875-2.246093-1.125-2.351562-2.460938l-1.492188-18.769531c-.039062-.515625.070313-1.011719.292969-1.445312 2.660157 2.117187 6.375 5.257812 9.660157 8.699218-.175782 1.988282-.265626 3.988282-.265626 5.976563 0 2.203125.113282 4.421875.335938 6.648437-2.234375.960938-4.320312 1.417969-6.179688 1.351563zm0 0"/></svg>