<svg id="Capa_1" enable-background="new 0 0 512 512" height="512" viewBox="0 0 512 512" width="512" xmlns="http://www.w3.org/2000/svg"><g><path d="m237.514 228.007-61.8-35.684-17.8-66.43-66.429 17.799-4.469-2.58-9.375-34.98-28.975 7.764 7.105 26.499-26.5 7.104 7.764 28.975 34.981-9.375 4.466 2.578 17.799 66.43 66.431-17.799 61.802 35.685z" fill="#6aa9ff"/><path d="m157.914 386.107 17.8-66.43 61.8-35.684-15-25.986-61.802 35.685-66.431-17.799-17.799 66.43-4.466 2.578-34.981-9.375-7.764 28.975 26.5 7.104-7.105 26.499 28.975 7.764 9.375-34.98 4.469-2.58z" fill="#6aa9ff"/><path d="m482.729 364.501-7.764-28.975-34.981 9.375-4.466-2.578-17.799-66.43-66.431 17.799-61.802-35.685-15 25.986 61.8 35.684 17.8 66.43 66.429-17.799 4.469 2.58 9.375 34.98 28.975-7.764-7.105-26.499z" fill="#2682ff"/><path d="m474.965 176.474 7.764-28.975-26.5-7.104 7.105-26.499-28.975-7.764-9.375 34.98-4.469 2.58-66.429-17.799-17.8 66.43-61.8 35.684 15 25.986 61.802-35.685 66.431 17.799 17.799-66.43 4.466-2.578z" fill="#2682ff"/><path d="m271 454.633 48.633-48.633-48.633-48.633v-71.367h-30v71.367l-48.633 48.633 48.633 48.633v10.551l-25.605 25.605 21.21 21.211 19.395-19.395 19.395 19.395 21.21-21.211-25.605-25.605z" fill="#6aa9ff"/><path d="m296.605 490.789-25.605-25.605v-10.551l48.633-48.633-48.633-48.633v-71.367h-15v206.605l19.395 19.395z" fill="#2682ff"/><path d="m271 57.367v-10.551l25.605-25.605-21.21-21.211-19.395 19.395-19.395-19.395-21.21 21.211 25.605 25.605v10.551l-48.633 48.633 48.633 48.633v71.367h30v-71.367l48.633-48.633z" fill="#6aa9ff"/><path d="m271 154.633 48.633-48.633-48.633-48.633v-10.551l25.605-25.605-21.21-21.211-19.395 19.395v206.605h15z" fill="#2682ff"/><circle cx="256" cy="256" fill="#6aa9ff" r="45"/><path d="m301 256c0-24.814-20.186-45-45-45v90c24.814 0 45-20.186 45-45z" fill="#2682ff"/></g></svg>