<svg id="Layer_1" enable-background="new 0 0 512.011 512.011" height="512" viewBox="0 0 512.011 512.011" width="512" xmlns="http://www.w3.org/2000/svg"><path d="m106.565.23c-6.59-1.117-13.181 1.982-16.526 7.77l-17.696 30.627-56.951 2.186c-9.954.382-17.134 9.675-15.022 19.389 7.494 34.456 38.217 58.724 73.166 59.436l74.244 1.512c6.895.122 12.862-4.079 15.241-10.206 3.652-9.405 5.988-18.651 6.944-27.479 4.327-39.922-23.521-76.482-63.4-83.235z" fill="#f9e8a2"/><path d="m140.433 88.427-70.648-1.437c-5.69-.114-10.938 2.759-13.918 7.558-32.625 52.544 6.549 113.221 62.889 114.371 75.984 1.547 74.276 1.515 74.573 1.515 6.589 0 12.521-4.047 14.914-10.21 24.59-63.346-19.293-110.809-67.81-111.797z" fill="#fee67b"/><path d="m185.654 177.708-70.646-1.438c-5.785-.103-10.998 2.853-13.919 7.557-32.509 52.351 6.306 113.218 62.888 114.373l74.245 1.512c6.882.122 12.858-4.068 15.242-10.207 24.574-63.31-19.261-110.808-67.81-111.797z" fill="#eed572"/><path d="m302.983 321.772c-9.502-32.083-38.48-54.098-72.108-54.782l-70.647-1.438c-5.687-.101-10.939 2.759-13.919 7.558-10.921 17.589-14.379 36.071-10.277 54.935 7.999 36.788 41.552 55.463 52.985 55.463 5.499 0 10.785-2.846 13.743-7.8l19.927-33.379 64.959-.012c10.676-.003 18.374-10.292 15.337-20.545z" fill="#fee67b"/><path d="m219.001 313.188c-16.708 9.792-50.286 19.088-79.625 25.979 7.658 19.753 23.475 35.523 43.97 43.296 7.223 2.74 15.42-.07 19.413-6.758l19.927-33.379 64.959-.012c10.678-.002 18.375-10.291 15.338-20.544-1.312-4.429-3.007-8.658-5.022-12.673-29.18-4.011-62.44-5.591-78.96 4.091z" fill="#f9e8a2"/><path d="m256.021 227.429c-11.252-30.07-39.763-49.097-70.367-49.721-74.468-1.516-70.688-1.441-70.974-1.441-5.524 0-10.669 2.854-13.592 7.56-9.3 14.976-13.167 30.603-11.584 46.559 11.367-1.289 26.557-5.842 46.836-15.379 43.003-20.224 85.868-7.396 119.681 12.422z" fill="#feeb95"/><path d="m215.303 157.995c-3.518-39.319-36.338-68.783-74.87-69.568l-70.648-1.437c-5.69-.114-10.938 2.759-13.918 7.558-9.785 15.76-13.559 32.24-11.291 49.068 18.703 4.708 44.971 7.054 73.008-3.755 24.821-9.57 63.413 2.572 97.719 18.134z" fill="#eed572"/><path d="m160.576 38.108c-10.993-19.419-30.39-33.878-54.011-37.878-6.59-1.117-13.181 1.982-16.526 7.77l-17.696 30.627-56.951 2.186c-9.954.382-17.134 9.675-15.022 19.389 1.323 6.083 3.424 11.956 6.205 17.491 16.747 8.786 38.099 12.203 60.524-4.258 50.069-36.753 26.633-72.44 86.822-38.883 2.279 1.27 4.493 2.448 6.655 3.556z" fill="#fee67b"/><path d="m496.618 72.824-77.378-2.969-24.563-42.513c-3.344-5.788-9.938-8.887-16.525-7.771-49.675 8.413-84.367 53.94-78.98 103.646 1.207 11.143 4.165 22.835 8.792 34.751 2.398 6.176 8.402 10.329 15.24 10.206l97.302-1.98c43.857-.894 81.88-31.42 91.135-73.983 2.116-9.733-5.088-19.006-15.023-19.387z" fill="#eed572"/><g fill="#fee67b"><path d="m439.541 140.9c-2.979-4.799-8.286-7.666-13.918-7.557l-92.587 1.885c-55.979 1.141-99.098 49.908-93.129 104.998 1.207 11.137 4.164 22.828 8.791 34.749 2.393 6.165 8.323 10.211 14.914 10.211.318 0-5.319.112 97.63-1.983 67.195 0 119.996-75.152 78.299-142.303z"/><path d="m380.279 257.909c-2.98-4.799-8.255-7.635-13.918-7.558l-92.587 1.885c-55.975 1.141-99.1 49.905-93.13 104.996 1.207 11.141 4.165 22.832 8.793 34.752 2.393 6.164 8.323 10.21 14.913 10.21.318 0-5.32.112 97.629-1.984 69.606-1.42 119.227-76.384 78.3-142.301z"/><path d="m321.015 374.914c-2.979-4.8-8.222-7.65-13.919-7.557l-92.587 1.886c-42.852.874-78.433 29.728-89.84 68.238-3.033 10.238 4.645 20.542 15.338 20.544l87.952.017 27.561 46.165c4.005 6.706 12.21 9.492 19.412 6.758 52.123-19.768 79.837-81.689 46.083-136.051z"/></g><path d="m309.903 190.495c52.473 10.583 96.693 40.356 133.401 43.052 15.085-27.831 15.796-61.149-3.763-92.647-2.979-4.799-8.286-7.666-13.918-7.557l-92.587 1.885c-34.035.694-66.129 19.661-82.6 50.676 13.587-1.5 32.692-.809 59.467 4.591z" fill="#feeb95"/><path d="m366.361 250.351-92.587 1.885c-41.838.853-79.558 29.136-90.576 71.081 28.545 10.36 67.502 17.221 101.825-4.113 41.057-25.52 84.717-14.359 109.747-3.764 1.857-19.684-2.979-38.99-14.49-57.53-2.982-4.8-8.256-7.636-13.919-7.559z" fill="#eed572"/><path d="m307.096 367.358-92.587 1.886c-37.818.772-70.374 23.323-85.324 56.21 13.471-2.071 28.699-5.168 45.816-9.661 63.02-16.54 121.356 16.95 154.907 40.686 9.919-26.107 8.015-54.331-8.894-81.563-2.979-4.801-8.221-7.652-13.918-7.558z" fill="#eed572"/><path d="m496.618 72.824-77.378-2.969-24.563-42.513c-3.344-5.788-9.938-8.887-16.525-7.771-35.829 6.068-63.86 31.445-74.683 63.771 38.477-5.304 115.519-11.416 140.959 19.644 11.982 14.63 22.533 30.537 31.644 44.163 18.371-13.678 30.887-33.408 35.568-54.938 2.117-9.733-5.087-19.006-15.022-19.387z" fill="#fee67b"/></svg>